<svg width="23" height="24" viewBox="0 0 23 24" fill="none" xmlns="http://www.w3.org/2000/svg">
<path d="M19.1665 4H3.83317C2.779 4 1.92609 4.9 1.92609 6L1.9165 18C1.9165 19.1 2.779 20 3.83317 20H19.1665C20.2207 20 21.0832 19.1 21.0832 18V6C21.0832 4.9 20.2207 4 19.1665 4ZM18.7832 8.25L12.0078 12.67C11.7011 12.87 11.2986 12.87 10.9919 12.67L4.2165 8.25C4.12041 8.19371 4.03626 8.11766 3.96915 8.02645C3.90203 7.93525 3.85336 7.83078 3.82606 7.71937C3.79876 7.60796 3.7934 7.49194 3.81032 7.37831C3.82724 7.26468 3.86608 7.15581 3.92448 7.0583C3.98289 6.96079 4.05965 6.87666 4.15012 6.811C4.24059 6.74533 4.34288 6.69951 4.45081 6.6763C4.55874 6.65309 4.67007 6.65297 4.77804 6.67595C4.88602 6.69893 4.98841 6.74453 5.079 6.81L11.4998 11L17.9207 6.81C18.0113 6.74453 18.1137 6.69893 18.2216 6.67595C18.3296 6.65297 18.4409 6.65309 18.5489 6.6763C18.6568 6.69951 18.7591 6.74533 18.8496 6.811C18.94 6.87666 19.0168 6.96079 19.0752 7.0583C19.1336 7.15581 19.1724 7.26468 19.1894 7.37831C19.2063 7.49194 19.2009 7.60796 19.1736 7.71937C19.1463 7.83078 19.0976 7.93525 19.0305 8.02645C18.9634 8.11766 18.8793 8.19371 18.7832 8.25Z" fill="#15394E"/>
</svg>
