<svg width="60" height="40" viewBox="0 0 60 40" fill="none" xmlns="http://www.w3.org/2000/svg">
<path fill-rule="evenodd" clip-rule="evenodd" d="M2.30769 0C1.69565 0 1.10868 0.234127 0.675907 0.650874C0.243131 1.06762 0 1.63285 0 2.22222C0 2.81159 0.243131 3.37682 0.675907 3.79357C1.10868 4.21032 1.69565 4.44444 2.30769 4.44444H57.6923C58.3043 4.44444 58.8913 4.21032 59.3241 3.79357C59.7569 3.37682 60 2.81159 60 2.22222C60 1.63285 59.7569 1.06762 59.3241 0.650874C58.8913 0.234127 58.3043 0 57.6923 0H2.30769ZM0 20C0 19.4106 0.243131 18.8454 0.675907 18.4287C1.10868 18.0119 1.69565 17.7778 2.30769 17.7778H57.6923C58.3043 17.7778 58.8913 18.0119 59.3241 18.4287C59.7569 18.8454 60 19.4106 60 20C60 20.5894 59.7569 21.1546 59.3241 21.5713C58.8913 21.9881 58.3043 22.2222 57.6923 22.2222H2.30769C1.69565 22.2222 1.10868 21.9881 0.675907 21.5713C0.243131 21.1546 0 20.5894 0 20ZM0 37.7778C0 37.1884 0.243131 36.6232 0.675907 36.2064C1.10868 35.7897 1.69565 35.5556 2.30769 35.5556H57.6923C58.3043 35.5556 58.8913 35.7897 59.3241 36.2064C59.7569 36.6232 60 37.1884 60 37.7778C60 38.3671 59.7569 38.9324 59.3241 39.3491C58.8913 39.7659 58.3043 40 57.6923 40H2.30769C1.69565 40 1.10868 39.7659 0.675907 39.3491C0.243131 38.9324 0 38.3671 0 37.7778Z" fill="white"/>
</svg>
