<svg width="55" height="56" viewBox="0 0 55 56" fill="none" xmlns="http://www.w3.org/2000/svg">
<path d="M48.6489 46.0363C51.4718 42.6426 53.4352 38.6195 54.373 34.3072C55.3107 29.995 55.1952 25.5205 54.0362 21.2623C52.8772 17.0041 50.7088 13.0874 47.7145 9.84364C44.7201 6.59987 40.988 4.1244 36.8336 2.62666C32.6793 1.12891 28.225 0.652945 23.8477 1.23903C19.4703 1.82511 15.2986 3.45599 11.6855 5.99371C8.07233 8.53144 5.12406 11.9013 3.09005 15.8184C1.05604 19.7354 -0.00385785 24.0842 1.05511e-05 28.4971C0.00149499 34.9122 2.26398 41.1218 6.39047 46.0363L6.35115 46.0697C6.48875 46.2347 6.64601 46.3761 6.78754 46.5391C6.96445 46.7414 7.15512 46.9319 7.33793 47.1283C7.88832 47.7254 8.45444 48.2989 9.04808 48.8371C9.22892 49.0021 9.41566 49.1553 9.59847 49.3124C10.2275 49.8545 10.8742 50.3691 11.5445 50.8483C11.631 50.9072 11.7096 50.9838 11.7961 51.0447V51.0211C16.4 54.2583 21.8921 55.9956 27.5216 55.9956C33.1512 55.9956 38.6433 54.2583 43.2471 51.0211V51.0447C43.3336 50.9838 43.4103 50.9072 43.4988 50.8483C44.1671 50.3671 44.8158 49.8545 45.4448 49.3124C45.6276 49.1553 45.8143 49.0001 45.9952 48.8371C46.5888 48.297 47.1549 47.7254 47.7053 47.1283C47.8881 46.9319 48.0768 46.7414 48.2557 46.5391C48.3953 46.3761 48.5545 46.2347 48.6921 46.0677L48.6489 46.0363ZM27.5197 12.7845C29.2692 12.7845 30.9794 13.3029 32.434 14.274C33.8887 15.2452 35.0224 16.6256 35.6919 18.2406C36.3614 19.8556 36.5366 21.6326 36.1953 23.3471C35.854 25.0616 35.0115 26.6364 33.7745 27.8725C32.5374 29.1086 30.9612 29.9503 29.2454 30.2914C27.5295 30.6324 25.7509 30.4574 24.1346 29.7884C22.5183 29.1195 21.1368 27.9866 20.1648 26.5332C19.1928 25.0797 18.6741 23.3709 18.6741 21.6228C18.6741 19.2788 19.606 17.0307 21.2649 15.3732C22.9238 13.7157 25.1737 12.7845 27.5197 12.7845ZM11.8079 46.0363C11.842 43.4574 12.8909 40.9956 14.7277 39.1835C16.5644 37.3714 19.0414 36.3547 21.6226 36.3534H33.4167C35.998 36.3547 38.4749 37.3714 40.3117 39.1835C42.1484 40.9956 43.1973 43.4574 43.2314 46.0363C38.9204 49.918 33.3229 52.0662 27.5197 52.0662C21.7164 52.0662 16.119 49.918 11.8079 46.0363Z" fill="white"/>
</svg>
