<svg width="23" height="24" viewBox="0 0 23 24" fill="none" xmlns="http://www.w3.org/2000/svg">
<path d="M9.72366 13.7598C11.0573 15.1716 12.671 16.2616 14.4514 16.9532L16.8601 14.9532C16.9315 14.9018 17.0161 14.8744 17.1028 14.8744C17.1895 14.8744 17.2742 14.9018 17.3456 14.9532L21.8178 17.9598C21.9876 18.0663 22.1313 18.2126 22.2376 18.387C22.344 18.5615 22.4099 18.7593 22.4304 18.9649C22.4508 19.1705 22.4252 19.3783 22.3555 19.5718C22.2857 19.7653 22.1739 19.9392 22.0287 20.0798L19.9331 22.2398C19.633 22.5492 19.2642 22.7763 18.8595 22.9008C18.4548 23.0253 18.0269 23.0433 17.6139 22.9532C13.4945 22.0654 9.69755 19.9862 6.65699 16.9532C3.68391 13.89 1.62656 9.99239 0.734495 5.73316C0.646371 5.30892 0.664763 4.86812 0.787891 4.45348C0.911018 4.03883 1.1347 3.66441 1.43727 3.36649L3.6095 1.17983C3.74392 1.03568 3.90785 0.925143 4.08901 0.856478C4.27018 0.787813 4.46388 0.762805 4.65562 0.783325C4.84736 0.803846 5.03216 0.869364 5.1962 0.974973C5.36023 1.08058 5.49925 1.22355 5.60283 1.39316L8.58005 5.99983C8.6314 6.07216 8.65912 6.1598 8.65912 6.24983C8.65912 6.33985 8.6314 6.42749 8.58005 6.49983L6.61866 8.95983C7.29945 10.7805 8.3601 12.4201 9.72366 13.7598V13.7598Z" fill="#15394E"/>
</svg>
