<svg width="127" height="126" viewBox="0 0 127 126" fill="none" xmlns="http://www.w3.org/2000/svg">
<path fill-rule="evenodd" clip-rule="evenodd" d="M64.2606 4C31.8198 4 5.52124 30.2985 5.52124 62.7394C5.52124 95.1803 31.8198 121.479 64.2606 121.479C96.7015 121.479 123 95.1803 123 62.7394C123 30.2985 96.7015 4 64.2606 4ZM1.52124 62.7394C1.52124 28.0894 29.6106 0 64.2606 0C98.9107 0 127 28.0894 127 62.7394C127 97.3894 98.9107 125.479 64.2606 125.479C29.6106 125.479 1.52124 97.3894 1.52124 62.7394ZM64.2606 106.514C88.4367 106.514 108.035 86.9154 108.035 62.7394C108.035 38.5633 88.4367 18.9647 64.2606 18.9647C40.0845 18.9647 20.486 38.5633 20.486 62.7394C20.486 86.9154 40.0845 106.514 64.2606 106.514ZM64.2606 108.514C89.5412 108.514 110.035 88.02 110.035 62.7394C110.035 37.4587 89.5412 16.9647 64.2606 16.9647C38.98 16.9647 18.486 37.4587 18.486 62.7394C18.486 88.02 38.98 108.514 64.2606 108.514Z" fill="#009F3D"/>
<g filter="url(#filter0_dd_543_1100)">
<path d="M36.9717 21.366L40.1339 32.4884H50.3669L42.0882 39.3625L45.2504 50.4849L36.9717 43.6109L28.693 50.4849L31.8552 39.3625L23.5766 32.4884H33.8095L36.9717 21.366Z" fill="#F4C300"/>
</g>
<g filter="url(#filter1_dd_543_1100)">
<path d="M64.2606 14.3237L67.818 26.8365H79.3301L70.0166 34.5698L73.5741 47.0826L64.2606 39.3493L54.9471 47.0826L58.5045 34.5698L49.191 26.8365H60.7032L64.2606 14.3237Z" fill="#F4C300"/>
</g>
<g filter="url(#filter2_dd_543_1100)">
<path d="M91.5491 21.366L94.7113 32.1049H104.944L96.6656 38.7419L99.8278 49.4808L91.5491 42.8438L83.2704 49.4808L86.4326 38.7419L78.1539 32.1049H88.3869L91.5491 21.366Z" fill="#F4C300"/>
</g>
<path d="M10.6658 64.4026V58.3186C10.6658 56.2066 11.7218 55.1506 13.8338 55.1506H18.9098L20.3138 56.2306V57.9766H13.9958C13.8638 57.9766 13.7978 58.0426 13.7978 58.1746V64.5466C13.7978 64.6786 13.8638 64.7446 13.9958 64.7446H17.5418V62.6566H15.5078V59.8306H20.6738V67.5706H13.8338C11.7218 67.5706 10.6658 66.5146 10.6658 64.4026ZM23.0073 64.4026V55.1506H26.1393V64.5466C26.1393 64.6786 26.2053 64.7446 26.3373 64.7446H29.6853C29.8173 64.7446 29.8833 64.6786 29.8833 64.5466V55.1506H33.0153V64.4026C33.0153 66.5146 31.9593 67.5706 29.8473 67.5706H26.1753C24.0633 67.5706 23.0073 66.5146 23.0073 64.4026ZM34.6208 66.9946L38.1308 55.1506H42.8108L46.3208 66.9946L45.9428 67.5706H43.3148L42.7028 65.3566H38.2388L37.6268 67.5706H34.9988L34.6208 66.9946ZM39.0668 62.5306H41.8748L40.5788 57.9766H40.3628L39.0668 62.5306ZM48.0235 67.5706V55.1506H54.1435C56.2555 55.1506 57.3115 56.2066 57.3115 58.3186V60.4066C57.3115 61.8706 56.8075 62.8306 55.7995 63.2866L57.6715 66.9406L57.3115 67.5706H54.6115L52.5595 63.5566H51.1555V67.5706H48.0235ZM51.1555 60.7306H53.9815C54.1135 60.7306 54.1795 60.6646 54.1795 60.5326V58.1746C54.1795 58.0426 54.1135 57.9766 53.9815 57.9766H51.1555V60.7306ZM58.6677 66.9946L62.1777 55.1506H66.8577L70.3677 66.9946L69.9897 67.5706H67.3617L66.7497 65.3566H62.2857L61.6737 67.5706H59.0457L58.6677 66.9946ZM63.1137 62.5306H65.9217L64.6257 57.9766H64.4097L63.1137 62.5306ZM72.0704 67.5706V55.1506H75.4544L79.5764 62.3506V55.1506H82.7084V67.5706H79.3424L75.2024 60.3706V67.5706H72.0704ZM84.5456 57.9766V55.1506H94.8776V57.9766H91.2776V67.5706H88.1456V57.9766H84.5456ZM96.7149 67.5706V55.1506H105.409V57.9766H99.8469V59.8306H104.869V62.6566H99.8469V64.7446H105.409V67.5706H96.7149ZM107.719 67.5706V55.1506H116.413V57.9766H110.851V59.8306H115.873V62.6566H110.851V64.7446H116.413V67.5706H107.719Z" fill="white"/>
<defs>
<filter id="filter0_dd_543_1100" x="19.5767" y="21.366" width="34.7903" height="37.1189" filterUnits="userSpaceOnUse" color-interpolation-filters="sRGB">
<feFlood flood-opacity="0" result="BackgroundImageFix"/>
<feColorMatrix in="SourceAlpha" type="matrix" values="0 0 0 0 0 0 0 0 0 0 0 0 0 0 0 0 0 0 127 0" result="hardAlpha"/>
<feOffset dy="4"/>
<feGaussianBlur stdDeviation="2"/>
<feComposite in2="hardAlpha" operator="out"/>
<feColorMatrix type="matrix" values="0 0 0 0 0 0 0 0 0 0 0 0 0 0 0 0 0 0 0.25 0"/>
<feBlend mode="normal" in2="BackgroundImageFix" result="effect1_dropShadow_543_1100"/>
<feColorMatrix in="SourceAlpha" type="matrix" values="0 0 0 0 0 0 0 0 0 0 0 0 0 0 0 0 0 0 127 0" result="hardAlpha"/>
<feOffset dy="4"/>
<feGaussianBlur stdDeviation="2"/>
<feComposite in2="hardAlpha" operator="out"/>
<feColorMatrix type="matrix" values="0 0 0 0 0 0 0 0 0 0 0 0 0 0 0 0 0 0 0.25 0"/>
<feBlend mode="normal" in2="effect1_dropShadow_543_1100" result="effect2_dropShadow_543_1100"/>
<feBlend mode="normal" in="SourceGraphic" in2="effect2_dropShadow_543_1100" result="shape"/>
</filter>
<filter id="filter1_dd_543_1100" x="45.1909" y="14.3237" width="38.1392" height="40.7588" filterUnits="userSpaceOnUse" color-interpolation-filters="sRGB">
<feFlood flood-opacity="0" result="BackgroundImageFix"/>
<feColorMatrix in="SourceAlpha" type="matrix" values="0 0 0 0 0 0 0 0 0 0 0 0 0 0 0 0 0 0 127 0" result="hardAlpha"/>
<feOffset dy="4"/>
<feGaussianBlur stdDeviation="2"/>
<feComposite in2="hardAlpha" operator="out"/>
<feColorMatrix type="matrix" values="0 0 0 0 0 0 0 0 0 0 0 0 0 0 0 0 0 0 0.25 0"/>
<feBlend mode="normal" in2="BackgroundImageFix" result="effect1_dropShadow_543_1100"/>
<feColorMatrix in="SourceAlpha" type="matrix" values="0 0 0 0 0 0 0 0 0 0 0 0 0 0 0 0 0 0 127 0" result="hardAlpha"/>
<feOffset dy="4"/>
<feGaussianBlur stdDeviation="2"/>
<feComposite in2="hardAlpha" operator="out"/>
<feColorMatrix type="matrix" values="0 0 0 0 0 0 0 0 0 0 0 0 0 0 0 0 0 0 0.25 0"/>
<feBlend mode="normal" in2="effect1_dropShadow_543_1100" result="effect2_dropShadow_543_1100"/>
<feBlend mode="normal" in="SourceGraphic" in2="effect2_dropShadow_543_1100" result="shape"/>
</filter>
<filter id="filter2_dd_543_1100" x="74.1541" y="21.366" width="34.7903" height="36.115" filterUnits="userSpaceOnUse" color-interpolation-filters="sRGB">
<feFlood flood-opacity="0" result="BackgroundImageFix"/>
<feColorMatrix in="SourceAlpha" type="matrix" values="0 0 0 0 0 0 0 0 0 0 0 0 0 0 0 0 0 0 127 0" result="hardAlpha"/>
<feOffset dy="4"/>
<feGaussianBlur stdDeviation="2"/>
<feComposite in2="hardAlpha" operator="out"/>
<feColorMatrix type="matrix" values="0 0 0 0 0 0 0 0 0 0 0 0 0 0 0 0 0 0 0.25 0"/>
<feBlend mode="normal" in2="BackgroundImageFix" result="effect1_dropShadow_543_1100"/>
<feColorMatrix in="SourceAlpha" type="matrix" values="0 0 0 0 0 0 0 0 0 0 0 0 0 0 0 0 0 0 127 0" result="hardAlpha"/>
<feOffset dy="4"/>
<feGaussianBlur stdDeviation="2"/>
<feComposite in2="hardAlpha" operator="out"/>
<feColorMatrix type="matrix" values="0 0 0 0 0 0 0 0 0 0 0 0 0 0 0 0 0 0 0.25 0"/>
<feBlend mode="normal" in2="effect1_dropShadow_543_1100" result="effect2_dropShadow_543_1100"/>
<feBlend mode="normal" in="SourceGraphic" in2="effect2_dropShadow_543_1100" result="shape"/>
</filter>
</defs>
</svg>
