<svg width="115" height="113" viewBox="0 0 115 113" fill="none" xmlns="http://www.w3.org/2000/svg">
<path d="M92.2087 55.9721C92.2087 35.6352 76.2168 19.5609 56.9913 19.5609C37.7658 19.5609 21.7739 35.6352 21.7739 55.9721C21.7739 76.309 37.7658 92.3833 56.9913 92.3833C76.2168 92.3833 92.2087 76.309 92.2087 55.9721Z" stroke="#F4C300" stroke-width="18"/>
<path d="M71.1087 50.3838C71.1087 40.8843 64.068 34.1221 56.5 34.1221C48.932 34.1221 41.8913 40.8843 41.8913 50.3838C41.8913 59.8834 48.932 66.6455 56.5 66.6455C64.068 66.6455 71.1087 59.8834 71.1087 50.3838Z" stroke="black" stroke-width="15"/>
<path d="M84.9 53.8599C84.9 37.8531 72.918 25.5655 58.9565 25.5655C44.9951 25.5655 33.0131 37.8531 33.0131 53.8599C33.0131 69.8667 44.9951 82.1543 58.9565 82.1543C72.918 82.1543 84.9 69.8667 84.9 53.8599Z" stroke="#009F3D" stroke-width="11"/>
<mask id="path-4-inside-1_446:1744" fill="white">
<ellipse rx="12.2826" ry="13.2009" transform="matrix(1 0 0 -1 59.4478 53.3318)"/>
</mask>
<ellipse rx="12.2826" ry="13.2009" transform="matrix(1 0 0 -1 59.4478 53.3318)" fill="#DF0024"/>
<path d="M55.7304 53.3318C55.7304 53.736 55.8908 54.3284 56.4191 54.8962C56.9658 55.4838 58.0317 56.1308 59.4478 56.1308V24.1308C76.1348 24.1308 87.7304 38.3106 87.7304 53.3318H55.7304ZM59.4478 56.1308C60.864 56.1308 61.9299 55.4838 62.4765 54.8962C63.0049 54.3284 63.1652 53.736 63.1652 53.3318H31.1652C31.1652 38.3106 42.7608 24.1308 59.4478 24.1308V56.1308ZM63.1652 53.3318C63.1652 52.9276 63.0049 52.3352 62.4765 51.7673C61.9299 51.1798 60.864 50.5327 59.4478 50.5327V82.5327C42.7608 82.5327 31.1652 68.3529 31.1652 53.3318H63.1652ZM59.4478 50.5327C58.0317 50.5327 56.9658 51.1798 56.4191 51.7673C55.8908 52.3352 55.7304 52.9276 55.7304 53.3318H87.7304C87.7304 68.3529 76.1348 82.5327 59.4478 82.5327V50.5327Z" fill="#DF0024" mask="url(#path-4-inside-1_446:1744)"/>
<path d="M92.2822 25.0501V87.6001H82.0222V44.7601L62.9422 87.6001H55.8322L36.6622 44.7601V87.6001H26.4022V25.0501H37.4722L59.4322 74.1001L81.3022 25.0501H92.2822Z" fill="#009F3D"/>
<path d="M92.2822 25.0501H98.2822V19.0501H92.2822V25.0501ZM92.2822 87.6001V93.6001H98.2822V87.6001H92.2822ZM82.0222 87.6001H76.0222V93.6001H82.0222V87.6001ZM82.0222 44.7601H88.0222L76.5412 42.319L82.0222 44.7601ZM62.9422 87.6001V93.6001H66.8381L68.4231 90.0412L62.9422 87.6001ZM55.8322 87.6001L50.3555 90.0508L51.9437 93.6001H55.8322V87.6001ZM36.6622 44.7601L42.1388 42.3094L30.6622 44.7601H36.6622ZM36.6622 87.6001V93.6001H42.6622V87.6001H36.6622ZM26.4022 87.6001H20.4022V93.6001H26.4022V87.6001ZM26.4022 25.0501V19.0501H20.4022V25.0501H26.4022ZM37.4722 25.0501L42.9484 22.5984L41.3598 19.0501H37.4722V25.0501ZM59.4322 74.1001L53.9559 76.5518L59.4434 88.8087L64.9121 76.5435L59.4322 74.1001ZM81.3022 25.0501V19.0501H77.408L75.8222 22.6067L81.3022 25.0501ZM86.2822 25.0501V87.6001H98.2822V25.0501H86.2822ZM92.2822 81.6001H82.0222V93.6001H92.2822V81.6001ZM88.0222 87.6001V44.7601H76.0222V87.6001H88.0222ZM76.5412 42.319L57.4612 85.159L68.4231 90.0412L87.5031 47.2012L76.5412 42.319ZM62.9422 81.6001H55.8322V93.6001H62.9422V81.6001ZM61.3088 85.1494L42.1388 42.3094L31.1855 47.2108L50.3555 90.0508L61.3088 85.1494ZM30.6622 44.7601V87.6001H42.6622V44.7601H30.6622ZM36.6622 81.6001H26.4022V93.6001H36.6622V81.6001ZM32.4022 87.6001V25.0501H20.4022V87.6001H32.4022ZM26.4022 31.0501H37.4722V19.0501H26.4022V31.0501ZM31.9959 27.5018L53.9559 76.5518L64.9084 71.6484L42.9484 22.5984L31.9959 27.5018ZM64.9121 76.5435L86.7821 27.4935L75.8222 22.6067L53.9522 71.6567L64.9121 76.5435ZM81.3022 31.0501H92.2822V19.0501H81.3022V31.0501Z" fill="white"/>
<path d="M108.465 56.5C108.465 28.8858 86.0795 6.5 58.4652 6.5C30.851 6.5 8.46521 28.8858 8.46521 56.5C8.46521 84.1142 30.851 106.5 58.4652 106.5C86.0795 106.5 108.465 84.1142 108.465 56.5Z" stroke="#0085C7" stroke-width="13"/>
</svg>
