<svg width="309" height="50" viewBox="0 0 309 50" fill="none" xmlns="http://www.w3.org/2000/svg">
<path d="M25 0L30.6129 17.2746H48.7764L34.0818 27.9508L39.6946 45.2254L25 34.5491L10.3054 45.2254L15.9182 27.9508L1.22359 17.2746H19.3871L25 0Z" fill="#FCCE59"/>
<path d="M90 0L95.6129 17.2746H113.776L99.0818 27.9508L104.695 45.2254L90 34.5491L75.3054 45.2254L80.9182 27.9508L66.2236 17.2746H84.3871L90 0Z" fill="#FCCE59"/>
<path d="M154.5 0L160.001 17.2746H177.801L163.4 27.9508L168.901 45.2254L154.5 34.5491L140.099 45.2254L145.6 27.9508L131.199 17.2746H148.999L154.5 0Z" fill="#FCCE59"/>
<path d="M219 0L224.613 17.2746H242.776L228.082 27.9508L233.695 45.2254L219 34.5491L204.305 45.2254L209.918 27.9508L195.224 17.2746H213.387L219 0Z" fill="#FCCE59"/>
<path d="M284 0L289.613 17.2746H307.776L293.082 27.9508L298.695 45.2254L284 34.5491L269.305 45.2254L274.918 27.9508L260.224 17.2746H278.387L284 0Z" fill="#FCCE59"/>
</svg>
