<svg width="48" height="44" viewBox="0 0 48 44" fill="none" xmlns="http://www.w3.org/2000/svg">
<path d="M15.0954 43.0945C33.2095 43.0945 43.1154 26.8847 43.1154 12.8281C43.1154 12.3677 43.1068 11.9094 43.0876 11.4531C45.0105 9.95158 46.6818 8.0778 48 5.94475C46.2355 6.79195 44.3366 7.36227 42.3446 7.61944C44.3778 6.3025 45.9388 4.21925 46.6752 1.73579C44.7724 2.95422 42.6653 3.83979 40.4217 4.3179C38.6247 2.25026 36.0662 0.957031 33.2333 0.957031C27.7949 0.957031 23.3847 5.72091 23.3847 11.5931C23.3847 12.4278 23.4711 13.2398 23.6401 14.0186C15.4552 13.5737 8.1975 9.34084 3.34023 2.90444C2.49448 4.47647 2.0068 6.30255 2.0068 8.25101C2.0068 11.9416 3.74541 15.1996 6.38924 17.1056C4.77353 17.0517 3.25575 16.5726 1.92916 15.7752C1.92771 15.8198 1.92771 15.8633 1.92771 15.911C1.92771 21.0627 5.3223 25.364 9.82843 26.3386C9.00091 26.5823 8.13025 26.713 7.23164 26.713C6.59805 26.713 5.98075 26.6456 5.38076 26.5211C6.63451 30.7478 10.2701 33.8235 14.5804 33.9094C11.2098 36.7631 6.96378 38.4628 2.34908 38.4628C1.55515 38.4628 0.77084 38.414 0 38.3155C4.35844 41.3331 9.53367 43.0938 15.096 43.0938" fill="#1DA1F2"/>
</svg>
